<?xml version="1.0" encoding="UTF-8"?>
<svg xmlns="http://www.w3.org/2000/svg" xmlns:xlink="http://www.w3.org/1999/xlink" width="63px" height="63px" viewBox="0 0 63 63" version="1.1">
<g id="surface1">
<path style=" stroke:none;fill-rule:evenodd;fill:rgb(19.215686%,76.470588%,74.117647%);fill-opacity:1;" d="M 14.769531 1.128906 L 31.5 17.863281 L 48.230469 1.128906 C 49.386719 -0.0234375 51.253906 -0.0234375 52.410156 1.128906 L 61.871094 10.589844 C 63.023438 11.746094 63.023438 13.613281 61.871094 14.769531 L 45.136719 31.5 L 61.871094 48.230469 C 63.023438 49.386719 63.023438 51.253906 61.871094 52.410156 L 52.410156 61.871094 C 51.253906 63.023438 49.386719 63.023438 48.230469 61.871094 L 31.5 45.136719 L 14.769531 61.871094 C 13.613281 63.023438 11.746094 63.023438 10.589844 61.871094 L 1.128906 52.40625 C -0.0234375 51.253906 -0.0234375 49.382812 1.128906 48.230469 L 17.863281 31.5 L 1.128906 14.769531 C -0.0234375 13.613281 -0.0234375 11.746094 1.128906 10.589844 L 10.589844 1.128906 C 11.746094 -0.0234375 13.613281 -0.0234375 14.769531 1.128906 Z M 14.769531 1.128906 "/>
</g>
</svg>
