<?xml version="1.0" encoding="UTF-8"?>
<svg xmlns="http://www.w3.org/2000/svg" xmlns:xlink="http://www.w3.org/1999/xlink" width="40px" height="40px" viewBox="0 0 40 40" version="1.1">
<g id="surface1">
<path style=" stroke:none;fill-rule:evenodd;fill:rgb(19.215686%,76.470588%,74.117647%);fill-opacity:1;" d="M 9.375 0.71875 L 20 11.339844 L 30.625 0.71875 C 31.355469 -0.015625 32.542969 -0.015625 33.277344 0.71875 L 39.28125 6.722656 C 40.015625 7.457031 40.015625 8.644531 39.28125 9.375 L 28.660156 20 L 39.28125 30.625 C 40.015625 31.355469 40.015625 32.542969 39.28125 33.277344 L 33.277344 39.28125 C 32.542969 40.015625 31.355469 40.015625 30.625 39.28125 L 20 28.660156 L 9.375 39.28125 C 8.644531 40.015625 7.457031 40.015625 6.722656 39.28125 L 0.71875 33.273438 C -0.015625 32.542969 -0.015625 31.355469 0.71875 30.625 L 11.339844 20 L 0.71875 9.375 C -0.015625 8.644531 -0.015625 7.457031 0.71875 6.722656 L 6.722656 0.71875 C 7.457031 -0.015625 8.644531 -0.015625 9.375 0.71875 Z M 9.375 0.71875 "/>
</g>
</svg>
