<?xml version="1.0" encoding="UTF-8"?>
<svg xmlns="http://www.w3.org/2000/svg" xmlns:xlink="http://www.w3.org/1999/xlink" width="31px" height="31px" viewBox="0 0 31 31" version="1.1">
<g id="surface1">
<path style=" stroke:none;fill-rule:evenodd;fill:rgb(19.215686%,76.470588%,74.117647%);fill-opacity:1;" d="M 7.265625 0.554688 L 15.5 8.789062 L 23.734375 0.554688 C 24.300781 -0.0117188 25.222656 -0.0117188 25.789062 0.554688 L 30.445312 5.210938 C 31.011719 5.777344 31.011719 6.699219 30.445312 7.265625 L 22.210938 15.5 L 30.445312 23.734375 C 31.011719 24.300781 31.011719 25.222656 30.445312 25.789062 L 25.789062 30.445312 C 25.222656 31.011719 24.300781 31.011719 23.734375 30.445312 L 15.5 22.210938 L 7.265625 30.445312 C 6.699219 31.011719 5.777344 31.011719 5.210938 30.445312 L 0.554688 25.789062 C -0.0117188 25.21875 -0.0117188 24.300781 0.554688 23.734375 L 8.789062 15.5 L 0.554688 7.265625 C -0.0117188 6.699219 -0.0117188 5.777344 0.554688 5.210938 L 5.210938 0.554688 C 5.777344 -0.0117188 6.699219 -0.0117188 7.265625 0.554688 Z M 7.265625 0.554688 "/>
</g>
</svg>
