<?xml version="1.0" encoding="UTF-8"?>
<svg xmlns="http://www.w3.org/2000/svg" xmlns:xlink="http://www.w3.org/1999/xlink" width="28px" height="28px" viewBox="0 0 28 28" version="1.1">
<g id="surface1">
<path style=" stroke:none;fill-rule:evenodd;fill:rgb(19.215686%,76.470588%,74.117647%);fill-opacity:1;" d="M 6.5625 0.5 L 14 7.9375 L 21.4375 0.5 C 21.949219 -0.0117188 22.78125 -0.0117188 23.292969 0.5 L 27.5 4.707031 C 28.011719 5.21875 28.011719 6.050781 27.5 6.5625 L 20.0625 14 L 27.5 21.4375 C 28.011719 21.949219 28.011719 22.78125 27.5 23.292969 L 23.292969 27.5 C 22.78125 28.011719 21.949219 28.011719 21.4375 27.5 L 14 20.0625 L 6.5625 27.5 C 6.050781 28.011719 5.21875 28.011719 4.707031 27.5 L 0.5 23.292969 C -0.0117188 22.78125 -0.0117188 21.949219 0.5 21.4375 L 7.9375 14 L 0.5 6.5625 C -0.0117188 6.050781 -0.0117188 5.21875 0.5 4.707031 L 4.707031 0.5 C 5.21875 -0.0117188 6.050781 -0.0117188 6.5625 0.5 Z M 6.5625 0.5 "/>
</g>
</svg>
