<?xml version="1.0" encoding="UTF-8"?>
<svg xmlns="http://www.w3.org/2000/svg" xmlns:xlink="http://www.w3.org/1999/xlink" width="16px" height="16px" viewBox="0 0 16 16" version="1.1">
<g id="surface1">
<path style=" stroke:none;fill-rule:evenodd;fill:rgb(19.215686%,76.470588%,74.117647%);fill-opacity:1;" d="M 3.75 0.285156 L 8 4.535156 L 12.25 0.285156 C 12.542969 -0.0078125 13.019531 -0.0078125 13.308594 0.285156 L 15.714844 2.691406 C 16.007812 2.980469 16.007812 3.457031 15.714844 3.75 L 11.464844 8 L 15.714844 12.25 C 16.007812 12.542969 16.007812 13.019531 15.714844 13.308594 L 13.308594 15.714844 C 13.019531 16.007812 12.542969 16.007812 12.25 15.714844 L 8 11.464844 L 3.75 15.714844 C 3.457031 16.007812 2.980469 16.007812 2.691406 15.714844 L 0.285156 13.308594 C -0.0078125 13.015625 -0.0078125 12.542969 0.285156 12.25 L 4.535156 8 L 0.285156 3.75 C -0.0078125 3.457031 -0.0078125 2.980469 0.285156 2.691406 L 2.691406 0.285156 C 2.980469 -0.0078125 3.457031 -0.0078125 3.75 0.285156 Z M 3.75 0.285156 "/>
</g>
</svg>
